<svg xmlns="http://www.w3.org/2000/svg" width="180" height="180"><g><path fill="#FAFAFA" d="M171.885 159.885c0 6.627-5.373 12-12 12h-139.77c-6.627 0-12-5.373-12-12v-139.77c0-6.627 5.373-12 12-12h139.77c6.627 0 12 5.373 12 12v139.77z"/><path fill="#FFFFFE" d="M159.885 174.385h-139.77c-7.444 0-13.5-6.056-13.5-13.5v-139.77c0-7.444 6.056-13.5 13.5-13.5h139.77c7.444 0 13.5 6.056 13.5 13.5v139.77c0 7.444-6.056 13.5-13.5 13.5zm-139.77-163.77c-5.79 0-10.5 4.71-10.5 10.5v139.77c0 5.79 4.71 10.5 10.5 10.5h139.77c5.79 0 10.5-4.71 10.5-10.5v-139.77c0-5.79-4.71-10.5-10.5-10.5h-139.77z" opacity=".9"/><path fill="#2BABCE" d="M159.885 173.385h-139.77c-7.444 0-13.5-6.056-13.5-13.5v-139.77c0-7.444 6.056-13.5 13.5-13.5h139.77c7.444 0 13.5 6.056 13.5 13.5v139.77c0 7.444-6.056 13.5-13.5 13.5zm-139.77-163.77c-5.79 0-10.5 4.71-10.5 10.5v139.77c0 5.79 4.71 10.5 10.5 10.5h139.77c5.79 0 10.5-4.71 10.5-10.5v-139.77c0-5.79-4.71-10.5-10.5-10.5h-139.77z"/><polygon fill="#2BABCE" points="170.885,125.625 170.885,163.624 167.299,168.582 160.684,171.885 114.167,171.885"/><path fill="#fff" d="M158.756 149.174l-.009 4.686-12.696.002c.709 1.74.846 3.656.42 5.466l12.268-.002-.01 4.686 7.729-6.926-7.702-7.912z"/></g><g><g fill="#2BABCE"><path d="M127.093 101.521c-2.907-1.479-6.261-1.151-8.778.566l-.656-.111c-.76-.145-1.52-.336-2.271-.567-.753-.235-1.498-.511-2.236-.837-1.702-.756-3.25-1.711-4.633-2.829-.381-2.69-2.021-5.16-4.627-6.488-4.244-2.161-9.438-.472-11.599 3.774-2.159 4.246-.472 9.437 3.774 11.597 2.766 1.408 5.933 1.181 8.401-.321 1.841.26 3.677.77 5.462 1.557 1.764.783 3.359 1.781 4.779 2.951.48 2.53 2.085 4.822 4.559 6.082 4.246 2.162 9.438.473 11.599-3.773 2.16-4.245.471-9.436-3.774-11.601zm-28.092-.658c-.541 1.061-1.84 1.482-2.899.943-1.061-.543-1.483-1.841-.942-2.9.539-1.061 1.837-1.483 2.897-.942 1.061.539 1.484 1.837.944 2.899zm5.798-1.886c-.54 1.061-1.838 1.483-2.898.942-1.063-.539-1.482-1.838-.943-2.899.541-1.062 1.839-1.481 2.898-.942 1.062.539 1.483 1.837.943 2.899zm21.573 13.468l-2.562-1.305-1.305 2.563-2.563-1.304 1.305-2.563-2.563-1.304 1.305-2.563 2.563 1.303 1.305-2.56 2.562 1.304-1.304 2.561 2.562 1.305-1.305 2.563zM98.881 132.16c-2.581-1.141-5.598.025-6.738 2.609-1.145 2.58.027 5.597 2.606 6.739 2.58 1.146 5.601-.024 6.739-2.608 1.141-2.582-.023-5.597-2.607-6.74zM103.094 108.755l-6.339 20.249c1.078-.015 2.173.202 3.228.667 1.049.462 1.943 1.132 2.66 1.931l10.771-18.465c-1.368-1.099-2.901-2.039-4.583-2.781-1.876-.833-3.806-1.356-5.737-1.601z"/></g><path fill="#2BABCE" d="M141.831 35.332l-.011-.318-1.823 4.048-7.062 14.785s-7.062 9.403-7.506 17.625c-.111 2.059-3.951-.318-6.392-1.497l-3.589 8.118-5.26 11.907-1.832 4.146c1.676 1.604 3.654 2.942 5.896 3.935 2.053.911 4.171 1.455 6.289 1.663l4.309-9.744.98-2.22 11.177-25.282 5.128-12.071-.304-15.095z"/><path fill="#2BABCE" d="M124.691 57.188l2.914-6.594.441-1 1.989-4.5.528-.453 8.129-6.953 3.127-2.674c-1.229-.459-3.047-.859-4.275-1.274-32.631-10.495-64.955-5.396-83.268 16.299-19.953 23.638-17.698 60.363 2.526 92.926-5.79-20.061-3.088-40.324 9.32-55.025 12.147-14.39 31.111-20.492 51.366-18.546.354.041.905.272 1.548.583l.391-.882 5.264-11.907z"/><path fill="#F1F2F2" d="M125.43 71.472c.445-8.222 7.506-17.625 7.506-17.625l7.063-14.785 1.824-4.048-3.127 2.674-8.129 6.953-.528.453-1.989 4.5-.441 1-2.914 6.594-5.264 11.906-.39.882c2.438 1.178 6.277 3.555 6.389 1.496z"/></g></svg>