<svg xmlns="http://www.w3.org/2000/svg" width="180" height="180"><path fill="#FAFAFA" d="M171.885 159.885c0 6.627-5.373 12-12 12h-139.77c-6.627 0-12-5.373-12-12v-139.77c0-6.627 5.373-12 12-12h139.77c6.627 0 12 5.373 12 12v139.77z"/><path fill="#FFFFFE" d="M159.885 174.385h-139.77c-7.444 0-13.5-6.056-13.5-13.5v-139.77c0-7.444 6.056-13.5 13.5-13.5h139.77c7.444 0 13.5 6.056 13.5 13.5v139.77c0 7.444-6.056 13.5-13.5 13.5zm-139.77-163.77c-5.79 0-10.5 4.71-10.5 10.5v139.77c0 5.79 4.71 10.5 10.5 10.5h139.77c5.79 0 10.5-4.71 10.5-10.5v-139.77c0-5.79-4.71-10.5-10.5-10.5h-139.77z" opacity=".9"/><path fill="#2BABCE" d="M159.885 173.385h-139.77c-7.444 0-13.5-6.056-13.5-13.5v-139.77c0-7.444 6.056-13.5 13.5-13.5h139.77c7.444 0 13.5 6.056 13.5 13.5v139.77c0 7.444-6.056 13.5-13.5 13.5zm-139.77-163.77c-5.79 0-10.5 4.71-10.5 10.5v139.77c0 5.79 4.71 10.5 10.5 10.5h139.77c5.79 0 10.5-4.71 10.5-10.5v-139.77c0-5.79-4.71-10.5-10.5-10.5h-139.77z"/><path fill="#2BABCE" d="M51.217 94.277c-14.099-2.162-24.965-13.102-27.037-27.223-2.587-17.615 9.639-34.051 27.254-36.639 1.566-.23 3.156-.346 4.727-.346 15.883 0 29.601 11.867 31.91 27.604.678 4.618.353 9.245-.968 13.751l-.299 1.02-1.061.056c-4.587.243-9.04 1.258-13.234 3.019l-5.313 2.229 3.551-4.537c1.468-1.876 2.257-3.893 2.324-5.907l-31.754 4.662c1.58 4.695 7.236 7.966 14.128 7.966 1.065 0 2.15-.08 3.223-.237.665-.097 1.361-.241 2.193-.452l6.296-1.596-4.958 4.195c-3.876 3.28-7.049 7.203-9.431 11.661l-.501.937-1.05-.163zm-6.913-43.604c-.171 0-.345.013-.519.038-.934.137-1.757.628-2.32 1.384-.563.757-.798 1.688-.661 2.621.253 1.721 1.751 3.019 3.486 3.019.171 0 .345-.013.52-.038 1.926-.284 3.262-2.081 2.979-4.005-.253-1.722-1.751-3.019-3.485-3.019zm20.808-3.056c-.171 0-.344.012-.518.038-1.925.283-3.262 2.08-2.98 4.006.252 1.719 1.751 3.017 3.485 3.017.171 0 .345-.013.52-.038 1.926-.283 3.263-2.08 2.98-4.006-.252-1.72-1.752-3.017-3.487-3.017z"/><path fill="#fff" d="M56.161 31.568c15.025 0 28.179 11.011 30.426 26.322.666 4.537.287 8.98-.923 13.111-4.845.256-9.471 1.344-13.736 3.134 1.996-2.55 2.987-5.531 2.542-8.553l-34.989 5.137c.928 6.328 7.758 10.712 15.964 10.712 1.125 0 2.276-.083 3.441-.253.806-.118 1.581-.288 2.344-.481-3.976 3.364-7.309 7.463-9.785 12.099-13.013-1.996-23.769-12.254-25.78-25.959-2.471-16.827 9.165-32.466 25.989-34.938 1.514-.223 3.02-.331 4.507-.331m8.939 24.609c.243 0 .49-.018.738-.054 2.75-.404 4.649-2.959 4.246-5.708-.368-2.5-2.517-4.299-4.972-4.299-.243 0-.489.018-.736.054-2.749.404-4.649 2.959-4.247 5.708.368 2.501 2.516 4.299 4.971 4.299m-20.809 3.058c.243 0 .49-.018.737-.054 2.749-.405 4.65-2.959 4.245-5.708-.367-2.5-2.514-4.3-4.968-4.3-.243 0-.49.018-.737.054-2.749.401-4.651 2.958-4.247 5.708.367 2.502 2.514 4.3 4.97 4.3m11.87-30.667c-1.643 0-3.306.122-4.944.362-18.434 2.708-31.229 19.908-28.521 38.342 2.168 14.777 13.539 26.225 28.294 28.488l2.1.322 1.001-1.873c2.292-4.29 5.346-8.065 9.077-11.223l4.504-3.811 5.417-2.274c4.035-1.693 8.319-2.67 12.733-2.904l2.123-.112.598-2.04c1.381-4.715 1.722-9.557 1.013-14.391-1.185-8.074-5.247-15.441-11.438-20.745-6.129-5.25-13.926-8.141-21.957-8.141zm8.939 24.609c-.996 0-1.856-.746-2.001-1.735-.162-1.106.607-2.141 1.715-2.303l.299-.022c.997 0 1.858.746 2.004 1.736.162 1.105-.607 2.139-1.715 2.302l-.302.022zm-20.809 3.058c-.996 0-1.857-.747-2.002-1.736-.079-.538.056-1.072.379-1.507s.797-.717 1.333-.795l.304-.023c.995 0 1.855.746 2 1.735.079.538-.055 1.072-.378 1.507-.324.435-.798.718-1.335.798l-.301.021zm-.75 16.92l27.728-4.071c-.383 1.292-1.065 2.387-1.704 3.203l-3.125 3.993-5.948 1.508c-.781.198-1.429.332-2.04.421-1.004.148-2.015.222-3.008.222-5.352 0-9.863-2.099-11.903-5.276z"/><path fill="#2BABCE" d="M123.206 93.829c-5.811-11.109-16.642-18.919-28.975-20.892l-.919-.147-.276-.889c-1.304-4.199-1.731-8.545-1.272-12.916 1.737-16.485 15.525-28.916 32.074-28.916 1.133 0 2.281.061 3.414.18 8.578.902 16.291 5.09 21.719 11.794 5.428 6.704 7.92 15.12 7.017 23.697-1.693 16.144-15.202 28.565-31.422 28.895l-.929.019-.431-.825zm-16.06-25.835c.421 5.804 6.727 10.931 14.898 11.791.777.082 1.563.123 2.334.123 7.237 0 13.229-3.587 14.685-8.557l-31.917-3.357zm28.205-17.799c-1.806 0-3.311 1.359-3.5 3.162-.1.937.172 1.856.766 2.589.594.733 1.438 1.191 2.375 1.289l.38.02c1.805 0 3.311-1.359 3.502-3.161.201-1.934-1.209-3.675-3.145-3.878l-.378-.021zm-20.919-2.2c-1.805 0-3.311 1.36-3.503 3.163-.199 1.933 1.21 3.673 3.143 3.875l.382.021c1.805 0 3.31-1.359 3.498-3.161.1-.938-.173-1.858-.766-2.591-.593-.732-1.437-1.189-2.374-1.288l-.38-.019z"/><path fill="#fff" d="M123.838 31.569c1.075 0 2.164.057 3.257.171 16.912 1.778 29.182 16.931 27.4 33.842-1.637 15.606-14.671 27.242-29.96 27.552-5.925-11.328-16.951-19.58-30.066-21.678-1.2-3.866-1.663-8.033-1.213-12.314 1.666-15.817 15.022-27.573 30.582-27.573m-9.385 24.985c2.54 0 4.719-1.921 4.99-4.504.291-2.764-1.712-5.238-4.476-5.527-.18-.019-.359-.028-.536-.028-2.54 0-4.72 1.92-4.994 4.504-.285 2.762 1.713 5.236 4.478 5.526.181.019.36.029.538.029m20.918 2.2c2.541 0 4.719-1.92 4.993-4.503.288-2.764-1.714-5.238-4.479-5.528-.18-.019-.358-.028-.535-.028-2.541 0-4.72 1.919-4.992 4.504-.293 2.761 1.713 5.239 4.478 5.527.18.019.358.028.535.028m-10.993 22.654c8.63 0 15.774-4.774 16.469-11.377l-35.169-3.699c-.759 7.233 6.496 13.923 16.209 14.945.842.088 1.673.131 2.491.131m-.54-52.839c-17.318 0-31.748 13.008-33.565 30.258-.481 4.576-.033 9.124 1.331 13.519l.553 1.778 1.839.294c11.867 1.898 22.29 9.415 27.882 20.106l.861 1.646 1.857-.038c16.975-.344 31.111-13.343 32.883-30.238.945-8.975-1.662-17.781-7.342-24.796s-13.752-11.398-22.729-12.342c-1.184-.124-2.386-.187-3.57-.187zm-9.385 24.985l-.221-.012c-1.116-.117-1.926-1.119-1.811-2.234.109-1.029.974-1.813 2.01-1.813l.22.012c.543.057 1.027.319 1.368.74.341.421.497.95.44 1.49-.108 1.035-.971 1.817-2.006 1.817zm20.918 2.2l-.22-.012c-.544-.057-1.028-.32-1.37-.741-.341-.421-.497-.948-.439-1.486.109-1.039.973-1.821 2.009-1.821l.22.012c1.115.117 1.927 1.119 1.811 2.234-.111 1.032-.975 1.814-2.011 1.814zm-10.993 22.654c-.72 0-1.452-.039-2.178-.115-6.422-.676-11.715-4.316-13.176-8.593l27.862 2.931c-2.017 3.434-6.833 5.777-12.508 5.777z"/><path fill="#94B43D" d="M87.222 149.429c-20.499-.267-36.96-17.159-36.695-37.655.262-20.234 16.933-36.695 37.162-36.695l.494.003c20.496.267 36.956 17.16 36.691 37.656-.26 20.233-16.935 36.694-37.168 36.694l-.484-.003zm-19.35-29.556c.277 3.438 2.208 6.677 5.517 9.208 3.717 2.843 8.702 4.445 14.037 4.514l.358.002c10.248 0 18.742-5.84 19.54-13.212l-39.452-.512zm32.333-23.871c-2.668 0-4.871 2.176-4.911 4.85-.034 2.704 2.142 4.936 4.849 4.971h.001c2.738 0 4.94-2.174 4.974-4.847.031-2.708-2.144-4.939-4.847-4.973l-.065-1.001v1zm-24.711-.322c-2.672 0-4.874 2.176-4.908 4.849-.035 2.707 2.139 4.938 4.846 4.973h.001c2.736 0 4.936-2.173 4.971-4.843.017-1.314-.479-2.556-1.394-3.495-.915-.94-2.14-1.467-3.451-1.482l-.065-1.001v.999z"/><path fill="#fff" d="M87.689 76.079l.481.003c19.978.26 35.962 16.667 35.704 36.643-.255 19.818-16.407 35.707-36.17 35.707l-.469-.003c-19.978-.26-35.966-16.664-35.708-36.643.257-19.817 16.401-35.707 36.162-35.707m-12.19 30.423c3.227 0 5.862-2.595 5.905-5.831.041-3.269-2.568-5.95-5.832-5.99l-.078-.001c-3.228.001-5.867 2.598-5.908 5.836-.042 3.264 2.566 5.943 5.833 5.985l.08.001m24.708.321c3.229 0 5.869-2.598 5.91-5.835.037-3.264-2.57-5.945-5.834-5.985l-.078-.001c-3.228.001-5.862 2.595-5.911 5.835-.041 3.264 2.572 5.942 5.836 5.985l.077.001m-12.423 27.774c11.301 0 20.491-6.75 20.6-15.198l-41.545-.539c-.111 8.541 9.1 15.589 20.575 15.735l.37.002m-.095-60.518c-10.092 0-19.609 3.906-26.799 10.998-7.196 7.099-11.231 16.575-11.363 26.683-.272 21.049 16.632 38.396 37.682 38.669l.495.003c10.094 0 19.614-3.905 26.805-10.997 7.199-7.1 11.235-16.576 11.365-26.685.271-21.048-16.631-38.394-37.678-38.668l-.507-.003zm-12.19 30.423l-.053-.001c-2.156-.027-3.887-1.804-3.86-3.96.027-2.129 1.78-3.86 3.908-3.861l.051.001c1.045.013 2.021.432 2.749 1.18.729.749 1.123 1.738 1.11 2.785-.029 2.125-1.78 3.856-3.905 3.856zm24.708.321l-.052-.001c-2.156-.028-3.889-1.805-3.861-3.96.031-2.126 1.786-3.859 3.912-3.86l.052.001c2.153.026 3.884 1.804 3.859 3.963-.026 2.126-1.78 3.857-3.91 3.857zm-12.423 27.774l-.345-.002c-5.122-.065-9.896-1.596-13.443-4.309-2.719-2.079-4.436-4.653-4.976-7.398l37.128.481c-1.427 6.349-9.148 11.228-18.364 11.228z"/><polygon fill="#2BABCE" points="170.885,125.625 170.885,163.624 167.299,168.582 160.684,171.885 114.167,171.885"/><text transform="translate(146.691 173.385)" fill="#fff" font-family="'BebasNeue'" font-size="47.45">+</text></svg>