<svg xmlns="http://www.w3.org/2000/svg" width="180" height="180"><g><path fill="#FAFAFA" d="M171.885 159.885c0 6.627-5.373 12-12 12h-139.77c-6.627 0-12-5.373-12-12v-139.77c0-6.627 5.373-12 12-12h139.77c6.627 0 12 5.373 12 12v139.77z"/><path fill="#FFFFFE" d="M159.885 174.385h-139.77c-7.444 0-13.5-6.056-13.5-13.5v-139.77c0-7.444 6.056-13.5 13.5-13.5h139.77c7.444 0 13.5 6.056 13.5 13.5v139.77c0 7.444-6.056 13.5-13.5 13.5zm-139.77-163.77c-5.79 0-10.5 4.71-10.5 10.5v139.77c0 5.79 4.71 10.5 10.5 10.5h139.77c5.79 0 10.5-4.71 10.5-10.5v-139.77c0-5.79-4.71-10.5-10.5-10.5h-139.77z" opacity=".9"/><path fill="#2BABCE" d="M159.885 173.385h-139.77c-7.444 0-13.5-6.056-13.5-13.5v-139.77c0-7.444 6.056-13.5 13.5-13.5h139.77c7.444 0 13.5 6.056 13.5 13.5v139.77c0 7.444-6.056 13.5-13.5 13.5zm-139.77-163.77c-5.79 0-10.5 4.71-10.5 10.5v139.77c0 5.79 4.71 10.5 10.5 10.5h139.77c5.79 0 10.5-4.71 10.5-10.5v-139.77c0-5.79-4.71-10.5-10.5-10.5h-139.77z"/><polygon fill="#2BABCE" points="170.885,125.625 170.885,163.624 167.299,168.582 160.684,171.885 114.167,171.885"/></g><g><path fill="#2BABCE" d="M138.256 59.538v56.372s-16.039-4.508-27.953-2.218c-10.675 2.054-18.528 7.842-19.853 8.865v.172l-.111-.085-.11.085v-.172c-1.323-1.023-9.178-6.812-19.847-8.865-11.918-2.29-29.525 2.218-29.525 2.218v-56.539l-3.296.495v60.729s19.188-4.939 32.241-2.426c12.836 2.469 20.592 9.894 20.592 9.894s7.755-7.425 20.589-9.894c13.058-2.514 31.457 2.426 31.457 2.426v-60.468c-.001 0-1.601-.27-4.184-.589zm-68.843 48.447c10.438 2.008 18.504 8.047 18.504 8.047v-55.46s-8.109-6.048-18.571-8.059c-10.59-2.037-24.423 1.987-24.423 1.987v55.463s13.878-4.017 24.49-1.978zm64.767 2.177v-55.46s-12.681-4.024-23.266-1.987c-10.462 2.01-18.837 8.058-18.837 8.058v55.462s8.328-6.039 18.768-8.05c10.614-2.036 23.335 1.977 23.335 1.977z"/><path fill="#2BABCE" stroke="#fff" stroke-width="2" stroke-miterlimit="10" d="M148.837 52.623c-.913-.914-2.41-.914-3.323 0l-29.472 29.474c-.913.913-2.41.913-3.323 0l-7.259-7.259c-.913-.913-2.409-.913-3.323 0l-4.451 4.455c-.914.913-.914 2.41 0 3.323l15.033 15.031c.913.914 2.41.914 3.323 0l37.246-37.249c.915-.914.915-2.41 0-3.324l-4.451-4.451z"/><path fill="#fff" d="M165.113 146.848c-.323-.322-.852-.322-1.175 0l-10.414 10.416c-.322.322-.852.322-1.174 0l-2.565-2.565c-.322-.322-.852-.322-1.174 0l-1.573 1.574c-.323.322-.323.852 0 1.174l5.313 5.312c.322.323.852.323 1.174 0l13.162-13.162c.323-.323.323-.852 0-1.175l-1.574-1.574z"/><path fill="#2BABCE" stroke="#fff" stroke-width="2" stroke-miterlimit="10" d="M28.394 103.249c.42.803 1.128 1.36 1.929 1.611.803.251 1.7.196 2.504-.225l18.257-9.556c1.891 2.122 4.348 3.788 7.251 4.696.153.048.306.069.459.093.141.068.28.139.433.187 8.563 2.679 17.711-2.11 20.39-10.674.056-.177.086-.353.11-.529.079-.158.155-.317.209-.491 2.68-8.564-2.108-17.711-10.672-20.391-.152-.048-.306-.07-.459-.095-.14-.067-.28-.137-.432-.184-8.564-2.68-17.711 2.108-20.391 10.672-.055.177-.085.354-.109.53-.08.157-.155.317-.21.491-1.062 3.394-.934 6.875.119 10.012l-18 9.42c-1.607.842-2.228 2.827-1.388 4.433zm31.903-9.743c-5.107-1.599-7.962-7.053-6.364-12.16.055-.177.085-.353.108-.53.08-.157.155-.317.21-.491 1.598-5.107 7.053-7.962 12.16-6.364.153.048.307.07.459.095.141.067.28.136.432.184 5.107 1.598 7.962 7.053 6.364 12.16-.055.177-.085.354-.108.53-.081.157-.155.316-.21.491-1.598 5.106-7.053 7.962-12.159 6.364-.154-.049-.307-.069-.461-.096-.14-.065-.278-.135-.431-.183z"/></g></svg>